<mxfile host="app.diagrams.net" modified="2023-11-24T02:30:44.979Z" agent="Mozilla/5.0 (Windows NT 10.0; Win64; x64) AppleWebKit/537.36 (KHTML, like Gecko) Chrome/119.0.0.0 Safari/537.36" etag="qOTQGcVute-Mzfpj71kf" version="22.1.3" type="github">
  <diagram name="第 1 页" id="Ui-6xDZG4yXv-m0ysYRE">
    <mxGraphModel dx="2607" dy="1378" grid="1" gridSize="10" guides="1" tooltips="1" connect="1" arrows="1" fold="1" page="1" pageScale="1" pageWidth="827" pageHeight="1169" math="0" shadow="0">
      <root>
        <mxCell id="0" />
        <mxCell id="1" parent="0" />
        <mxCell id="iayUrk5L2lRTLvckCghS-1" value="redis有几种存储形式？底层存储是怎样的数据结构？&lt;br&gt;&lt;br&gt;redis为什么快？单线程为什么快？为什么设计成单线程呢？&lt;br&gt;&lt;br&gt;redis的架构模型" style="rounded=0;whiteSpace=wrap;html=1;fontSize=18;align=left;verticalAlign=top;" vertex="1" parent="1">
          <mxGeometry x="100" y="160" width="720" height="160" as="geometry" />
        </mxCell>
        <mxCell id="iayUrk5L2lRTLvckCghS-2" value="redis的持久化有哪些？&lt;br&gt;&lt;br&gt;rdb和aof的优缺点有哪些？&lt;br&gt;&lt;br&gt;混合模式是怎样操作的呢（具体的流程）？" style="rounded=0;whiteSpace=wrap;html=1;fontSize=18;align=left;verticalAlign=top;" vertex="1" parent="1">
          <mxGeometry x="100" y="380" width="720" height="160" as="geometry" />
        </mxCell>
        <mxCell id="iayUrk5L2lRTLvckCghS-3" value="redis的高可用有哪些方式呢？（主从、哨兵、cluster集群）&lt;br&gt;&lt;br&gt;主从的数据是怎么同步的呢？如何保证主从数据同步不会出现丢失数据的情况？&lt;br&gt;&lt;br&gt;如果只有主从，那么主节点挂掉了之后，是需要手动找一个从节点来升级成主节点？那期间的程序访问redis就不可用了？&lt;br&gt;&lt;br&gt;那么就加哨兵来保证自动故障转移？哨兵是怎么一个运作模式呢？" style="rounded=0;whiteSpace=wrap;html=1;fontSize=18;align=left;verticalAlign=top;" vertex="1" parent="1">
          <mxGeometry x="100" y="610" width="970" height="280" as="geometry" />
        </mxCell>
      </root>
    </mxGraphModel>
  </diagram>
</mxfile>
